<?xml version="1.0" encoding="UTF-8"?>
<svg version="1.1" xmlns="http://www.w3.org/2000/svg" width="128" height="128">
<path d="M0 0 C0.92422256 -0.00671722 1.84844513 -0.01343445 2.80067444 -0.02035522 C5.85179035 -0.03933101 8.9026862 -0.04325932 11.95385742 -0.04541016 C14.07989085 -0.05183871 16.20592339 -0.05856712 18.33195496 -0.06558228 C22.78805593 -0.07755424 27.24407939 -0.08126321 31.70019531 -0.08007812 C37.39976892 -0.07987502 43.09884343 -0.10716892 48.79829884 -0.14162254 C53.18989834 -0.16390183 57.58137796 -0.16791533 61.97302818 -0.16685867 C64.07370408 -0.16921339 66.17438335 -0.17802958 68.27500343 -0.19352341 C71.21884336 -0.21320241 74.16161014 -0.20733743 77.10546875 -0.1953125 C77.96652222 -0.20655151 78.82757568 -0.21779053 79.71472168 -0.22937012 C86.42428429 -0.16001181 91.64998119 1.61815339 96.77026367 6.03662109 C97.43928711 6.87386719 97.43928711 6.87386719 98.12182617 7.72802734 C98.81405273 8.56140625 98.81405273 8.56140625 99.52026367 9.41162109 C102.96381059 14.68660858 103.04374018 19.43357783 103.03735352 25.54370117 C103.04407074 26.46792374 103.05078796 27.3921463 103.05770874 28.34437561 C103.07668452 31.39549152 103.08061284 34.44638737 103.08276367 37.49755859 C103.08919223 39.62359202 103.09592063 41.74962456 103.10293579 43.87565613 C103.11490775 48.3317571 103.11861673 52.78778056 103.11743164 57.24389648 C103.11722854 62.94347009 103.14452244 68.6425446 103.17897606 74.34200001 C103.20125534 78.73359951 103.20526885 83.12507913 103.20421219 87.51672935 C103.2065669 89.61740526 103.2153831 91.71808452 103.23087692 93.81870461 C103.25055592 96.76254453 103.24469094 99.70531131 103.23266602 102.64916992 C103.24390503 103.51022339 103.25514404 104.37127686 103.26672363 105.25842285 C103.19736533 111.96798546 101.41920013 117.19368236 97.00073242 122.31396484 C96.44256836 122.75998047 95.8844043 123.20599609 95.30932617 123.66552734 C94.47594727 124.35775391 94.47594727 124.35775391 93.62573242 125.06396484 C88.35074494 128.50751177 83.60377568 128.58744135 77.49365234 128.58105469 C76.56942978 128.58777191 75.64520721 128.59448914 74.69297791 128.60140991 C71.641862 128.62038569 68.59096615 128.62431401 65.53979492 128.62646484 C63.4137615 128.6328934 61.28772896 128.6396218 59.16169739 128.64663696 C54.70559641 128.65860893 50.24957295 128.6623179 45.79345703 128.66113281 C40.09388342 128.66092971 34.39480891 128.68822361 28.69535351 128.72267723 C24.30375401 128.74495652 19.91227438 128.74897002 15.52062416 128.74791336 C13.41994826 128.75026808 11.31926899 128.75908427 9.21864891 128.77457809 C6.27480898 128.79425709 3.3320422 128.78839212 0.38818359 128.77636719 C-0.47286987 128.7876062 -1.33392334 128.79884521 -2.22106934 128.8104248 C-8.92753271 128.74109854 -14.19542406 126.98229162 -19.27661133 122.50927734 C-19.94563477 121.65849609 -19.94563477 121.65849609 -20.62817383 120.79052734 C-21.32040039 119.93974609 -21.32040039 119.93974609 -22.02661133 119.07177734 C-24.30007885 115.77018119 -25.50081426 113.18291559 -25.52732849 109.1428833 C-25.53730362 108.32435883 -25.54727875 107.50583435 -25.55755615 106.6625061 C-25.55822083 105.77308319 -25.5588855 104.88366028 -25.55957031 103.96728516 C-25.56789383 103.02370148 -25.57621735 102.0801178 -25.58479309 101.10794067 C-25.60890066 97.9864693 -25.61766689 94.86520696 -25.62426758 91.74365234 C-25.63323446 89.57134946 -25.64235631 87.39904721 -25.65162659 85.22674561 C-25.66812199 80.67051696 -25.67581752 76.11436184 -25.67871094 71.55810547 C-25.68409032 65.72949674 -25.72175024 59.90158251 -25.7674551 54.07316971 C-25.79725098 49.58463034 -25.80443508 45.09625753 -25.80543709 40.60762787 C-25.80963557 38.45948868 -25.82205483 36.31134881 -25.84295464 34.16330719 C-25.86991607 31.15214057 -25.86502855 28.14257476 -25.85253906 25.13134766 C-25.8747905 23.80935867 -25.8747905 23.80935867 -25.89749146 22.46066284 C-25.81588391 15.52490566 -23.60238529 10.7515579 -18.77504635 5.76305008 C-12.81614854 0.48681954 -7.60403435 -0.00794819 0 0 Z " fill="#84E59B" transform="translate(25.253173828125,-0.29052734375)"/>
<path d="M0 0 C0.92422256 -0.00671722 1.84844513 -0.01343445 2.80067444 -0.02035522 C5.85179035 -0.03933101 8.9026862 -0.04325932 11.95385742 -0.04541016 C14.07989085 -0.05183871 16.20592339 -0.05856712 18.33195496 -0.06558228 C22.78805593 -0.07755424 27.24407939 -0.08126321 31.70019531 -0.08007812 C37.39976892 -0.07987502 43.09884343 -0.10716892 48.79829884 -0.14162254 C53.18989834 -0.16390183 57.58137796 -0.16791533 61.97302818 -0.16685867 C64.07370408 -0.16921339 66.17438335 -0.17802958 68.27500343 -0.19352341 C71.21884336 -0.21320241 74.16161014 -0.20733743 77.10546875 -0.1953125 C77.96652222 -0.20655151 78.82757568 -0.21779053 79.71472168 -0.22937012 C86.42428429 -0.16001181 91.64998119 1.61815339 96.77026367 6.03662109 C97.43928711 6.87386719 97.43928711 6.87386719 98.12182617 7.72802734 C98.81405273 8.56140625 98.81405273 8.56140625 99.52026367 9.41162109 C102.96381059 14.68660858 103.04374018 19.43357783 103.03735352 25.54370117 C103.04407074 26.46792374 103.05078796 27.3921463 103.05770874 28.34437561 C103.07668452 31.39549152 103.08061284 34.44638737 103.08276367 37.49755859 C103.08919223 39.62359202 103.09592063 41.74962456 103.10293579 43.87565613 C103.11490775 48.3317571 103.11861673 52.78778056 103.11743164 57.24389648 C103.11722854 62.94347009 103.14452244 68.6425446 103.17897606 74.34200001 C103.20125534 78.73359951 103.20526885 83.12507913 103.20421219 87.51672935 C103.2065669 89.61740526 103.2153831 91.71808452 103.23087692 93.81870461 C103.25055592 96.76254453 103.24469094 99.70531131 103.23266602 102.64916992 C103.24390503 103.51022339 103.25514404 104.37127686 103.26672363 105.25842285 C103.19736533 111.96798546 101.41920013 117.19368236 97.00073242 122.31396484 C96.44256836 122.75998047 95.8844043 123.20599609 95.30932617 123.66552734 C94.47594727 124.35775391 94.47594727 124.35775391 93.62573242 125.06396484 C88.35074494 128.50751177 83.60377568 128.58744135 77.49365234 128.58105469 C76.56942978 128.58777191 75.64520721 128.59448914 74.69297791 128.60140991 C71.641862 128.62038569 68.59096615 128.62431401 65.53979492 128.62646484 C63.4137615 128.6328934 61.28772896 128.6396218 59.16169739 128.64663696 C54.70559641 128.65860893 50.24957295 128.6623179 45.79345703 128.66113281 C40.09388342 128.66092971 34.39480891 128.68822361 28.69535351 128.72267723 C24.30375401 128.74495652 19.91227438 128.74897002 15.52062416 128.74791336 C13.41994826 128.75026808 11.31926899 128.75908427 9.21864891 128.77457809 C6.27480898 128.79425709 3.3320422 128.78839212 0.38818359 128.77636719 C-0.47286987 128.7876062 -1.33392334 128.79884521 -2.22106934 128.8104248 C-8.92753271 128.74109854 -14.19542406 126.98229162 -19.27661133 122.50927734 C-19.94563477 121.65849609 -19.94563477 121.65849609 -20.62817383 120.79052734 C-21.32040039 119.93974609 -21.32040039 119.93974609 -22.02661133 119.07177734 C-24.30007885 115.77018119 -25.50081426 113.18291559 -25.52732849 109.1428833 C-25.53730362 108.32435883 -25.54727875 107.50583435 -25.55755615 106.6625061 C-25.55822083 105.77308319 -25.5588855 104.88366028 -25.55957031 103.96728516 C-25.56789383 103.02370148 -25.57621735 102.0801178 -25.58479309 101.10794067 C-25.60890066 97.9864693 -25.61766689 94.86520696 -25.62426758 91.74365234 C-25.63323446 89.57134946 -25.64235631 87.39904721 -25.65162659 85.22674561 C-25.66812199 80.67051696 -25.67581752 76.11436184 -25.67871094 71.55810547 C-25.68409032 65.72949674 -25.72175024 59.90158251 -25.7674551 54.07316971 C-25.79725098 49.58463034 -25.80443508 45.09625753 -25.80543709 40.60762787 C-25.80963557 38.45948868 -25.82205483 36.31134881 -25.84295464 34.16330719 C-25.86991607 31.15214057 -25.86502855 28.14257476 -25.85253906 25.13134766 C-25.8747905 23.80935867 -25.8747905 23.80935867 -25.89749146 22.46066284 C-25.81588391 15.52490566 -23.60238529 10.7515579 -18.77504635 5.76305008 C-12.81614854 0.48681954 -7.60403435 -0.00794819 0 0 Z M-16.62817383 11.72802734 C-17.1102832 12.30423828 -17.59239258 12.88044922 -18.08911133 13.47412109 C-20.89889739 17.85851881 -20.42000946 22.93535996 -20.44604492 27.97119141 C-20.45422241 28.84650009 -20.4623999 29.72180878 -20.4708252 30.62364197 C-20.49561915 33.51780522 -20.51217979 36.41191963 -20.52661133 39.30615234 C-20.53193501 40.29646202 -20.53725868 41.2867717 -20.54274368 42.30709076 C-20.56944908 47.54879481 -20.58883241 52.79047526 -20.60327148 58.03222656 C-20.61661023 62.3641471 -20.6444657 66.69559655 -20.68530273 71.02734375 C-20.73467116 76.26453096 -20.75939758 81.50129091 -20.76649857 86.73870087 C-20.77320188 88.73055436 -20.78839992 90.72239865 -20.81238937 92.71411896 C-20.8441136 95.50734315 -20.84406689 98.29892709 -20.83666992 101.09228516 C-20.85307526 101.90815598 -20.86948059 102.72402679 -20.88638306 103.56462097 C-20.82120366 109.60503844 -19.01528761 113.5802984 -15.25317383 118.29052734 C-9.93888233 123.22522659 -5.59365198 123.44777094 1.40576172 123.48339844 C2.29067795 123.49157593 3.17559418 123.49975342 4.08732605 123.50817871 C7.01939215 123.53301436 9.95140984 123.54954544 12.88354492 123.56396484 C14.38693389 123.57195036 14.38693389 123.57195036 15.92069435 123.5800972 C21.22723246 123.60682277 26.53374711 123.62619827 31.84033203 123.640625 C36.22758871 123.65395741 40.61437954 123.68179826 45.00146484 123.72265625 C50.30233699 123.77202353 55.60278695 123.79675136 60.90387917 123.80385208 C62.92085184 123.8105569 64.93781538 123.82575886 66.9546566 123.84974289 C69.78390623 123.88146424 72.61153622 123.88142056 75.44091797 123.87402344 C76.26771057 123.89042877 77.09450317 123.90683411 77.9463501 123.92373657 C83.9915028 123.8593298 88.19870229 122.33953404 92.74682617 118.29052734 C97.493693 112.94482254 98.47740256 108.02867515 98.37792969 101.0480957 C98.38508499 100.16084305 98.3922403 99.27359039 98.39961243 98.35945129 C98.41641474 95.44922172 98.39714829 92.54055098 98.37573242 89.63037109 C98.37656183 87.59591037 98.3790239 85.56144972 98.38304138 83.5269928 C98.3858935 79.27275309 98.37125397 75.01904158 98.34375 70.76489258 C98.30964682 65.32192296 98.31569843 59.879896 98.33441257 54.43688107 C98.34499844 50.23914278 98.33603063 46.04162252 98.32102776 41.8439045 C98.31585862 39.83732311 98.31631229 37.83071883 98.32257271 35.82414055 C98.32804493 33.01678641 98.30758641 30.2107664 98.28027344 27.40356445 C98.28679932 26.5810318 98.2933252 25.75849915 98.30004883 24.91104126 C98.20679489 19.25207322 96.97270574 15.9631105 93.74682617 11.29052734 C88.01843677 5.99176715 83.75376674 4.99275125 76.05029297 5.01586914 C75.17337799 5.01075821 74.29646301 5.00564728 73.39297485 5.00038147 C70.49392877 4.98648142 67.59512038 4.98744288 64.69604492 4.98974609 C62.67828788 4.98585874 60.66053165 4.98152399 58.64277649 4.97676086 C54.41188913 4.96929729 50.18108521 4.96959047 45.95019531 4.97485352 C40.53642275 4.98064137 35.12299306 4.96373428 29.70927715 4.94050884 C25.54075635 4.92575257 21.3723177 4.92490251 17.20377541 4.92801857 C15.20834488 4.92750608 13.21290966 4.92228198 11.2175045 4.91220665 C8.42195991 4.89982611 5.62707752 4.90664422 2.83154297 4.91821289 C1.60234383 4.90674728 1.60234383 4.90674728 0.34831238 4.89505005 C-6.33383197 4.9559582 -12.22161146 6.26242927 -16.62817383 11.72802734 Z " fill="#000000" transform="translate(25.253173828125,-0.29052734375)"/>
<path d="M0 0 C0.87530869 -0.00817749 1.75061737 -0.01635498 2.65245056 -0.02478027 C5.54661382 -0.04957422 8.44072822 -0.06613486 11.33496094 -0.08056641 C12.32527061 -0.08589008 13.31558029 -0.09121376 14.33589935 -0.09669876 C19.57760341 -0.12340416 24.81928385 -0.14278749 30.06103516 -0.15722656 C34.3929557 -0.17056531 38.72440515 -0.19842078 43.05615234 -0.23925781 C48.29333955 -0.28862624 53.53009951 -0.31335266 58.76750946 -0.32045364 C60.75936295 -0.32715696 62.75120725 -0.342355 64.74292755 -0.36634445 C67.53615175 -0.39806867 70.32773568 -0.39802196 73.12109375 -0.390625 C73.93696457 -0.40703033 74.75283539 -0.42343567 75.59342957 -0.44033813 C81.63384703 -0.37515874 85.60910699 1.43075732 90.31933594 5.19287109 C95.25403519 10.50716259 95.47657953 14.85239294 95.51220703 21.85180664 C95.52447327 23.17918098 95.52447327 23.17918098 95.5369873 24.53337097 C95.56182296 27.46543708 95.57835403 30.39745477 95.59277344 33.32958984 C95.59809711 34.33184916 95.60342079 35.33410847 95.60890579 36.36673927 C95.63563137 41.67327739 95.65500686 46.97979204 95.66943359 52.28637695 C95.682766 56.67363363 95.71060686 61.06042446 95.75146484 65.44750977 C95.80083213 70.74838191 95.82555996 76.04883187 95.83266068 81.34992409 C95.83936549 83.36689676 95.85456745 85.38386031 95.87855148 87.40070152 C95.91027284 90.22995115 95.91022915 93.05758114 95.90283203 95.88696289 C95.91923737 96.71375549 95.9356427 97.5405481 95.95254517 98.39239502 C95.88813839 104.43754772 94.36834263 108.64474721 90.31933594 113.19287109 C84.97363113 117.93973792 80.05748375 118.92344748 73.0769043 118.82397461 C72.18965164 118.83112991 71.30239899 118.83828522 70.38825989 118.84565735 C67.47803031 118.86245966 64.56935958 118.84319321 61.65917969 118.82177734 C59.62471897 118.82260675 57.59025832 118.82506883 55.55580139 118.8290863 C51.30156168 118.83193842 47.04785017 118.81729889 42.79370117 118.78979492 C37.35073155 118.75569174 31.90870459 118.76174335 26.46568966 118.7804575 C22.26795138 118.79104336 18.07043112 118.78207555 13.87271309 118.76707268 C11.8661317 118.76190354 9.85952742 118.76235721 7.85294914 118.76861763 C5.04559501 118.77408985 2.239575 118.75363133 -0.56762695 118.72631836 C-1.39015961 118.73284424 -2.21269226 118.73937012 -3.06015015 118.74609375 C-8.71911819 118.65283981 -12.00808091 117.41875066 -16.68066406 114.19287109 C-21.97942426 108.46448169 -22.97844016 104.19981166 -22.95532227 96.49633789 C-22.96298866 95.18096542 -22.96298866 95.18096542 -22.97080994 93.83901978 C-22.98470998 90.93997369 -22.98374853 88.0411653 -22.98144531 85.14208984 C-22.98533266 83.1243328 -22.98966741 81.10657658 -22.99443054 79.08882141 C-23.00189412 74.85793405 -23.00160094 70.62713013 -22.99633789 66.39624023 C-22.99055004 60.98246767 -23.00745713 55.56903798 -23.03068256 50.15532207 C-23.04543883 45.98680127 -23.0462889 41.81836262 -23.04317284 37.64982033 C-23.04368532 35.6543898 -23.04890942 33.65895458 -23.05898476 31.66354942 C-23.07136529 28.86800483 -23.06454719 26.07312244 -23.05297852 23.27758789 C-23.06062225 22.4581218 -23.06826599 21.6386557 -23.07614136 20.7943573 C-23.02154254 14.80440034 -22.02264069 9.92064897 -17.99707031 5.23193359 C-17.41828125 4.76529297 -16.83949219 4.29865234 -16.24316406 3.81787109 C-15.37884766 3.09470703 -15.37884766 3.09470703 -14.49707031 2.35693359 C-10.11267259 -0.45285247 -5.03583144 0.02603547 0 0 Z M-14.68066406 9.19287109 C-18.0555281 13.51295411 -18.1086674 17.55790055 -18.06884766 22.83520508 C-18.07410461 23.69436523 -18.07936157 24.55352539 -18.08477783 25.4387207 C-18.09795671 28.27232162 -18.08924645 31.10535843 -18.07910156 33.93896484 C-18.08112309 35.91284798 -18.08403519 37.88673038 -18.08779907 39.86061096 C-18.09221972 43.99560666 -18.08580033 48.1304078 -18.07177734 52.26538086 C-18.0546969 57.55930058 -18.06452114 62.85276361 -18.08249474 68.14666653 C-18.09334909 72.22251306 -18.08987844 76.29825181 -18.08211136 80.37410164 C-18.08011334 82.32569495 -18.08255461 84.27729813 -18.08955002 86.22887993 C-18.09719036 88.95989671 -18.08552363 91.69018023 -18.06884766 94.42114258 C-18.07492035 95.22393143 -18.08099304 96.02672028 -18.08724976 96.85383606 C-18.03286986 101.67429034 -17.48555499 105.09820209 -14.68066406 109.19287109 C-9.86898201 113.47148245 -5.9632759 113.77168564 0.16699219 113.71044922 C1.47058182 113.72096313 1.47058182 113.72096313 2.80050659 113.73168945 C5.66127876 113.74923459 8.52105444 113.73765913 11.38183594 113.72412109 C13.37671091 113.72681701 15.3715846 113.73070026 17.36645508 113.73571777 C21.54260803 113.74160811 25.71841821 113.73306474 29.89453125 113.71435547 C35.24122909 113.69156633 40.58712373 113.70469189 45.93379211 113.72864532 C50.05169704 113.74311578 54.16941228 113.73849156 58.287323 113.72813416 C60.25845434 113.72547033 62.22960304 113.72872451 64.20071411 113.73805237 C66.9581651 113.74823844 69.71432462 113.73268827 72.47167969 113.71044922 C73.28224823 113.71854614 74.09281677 113.72664307 74.927948 113.73498535 C80.16089479 113.6569991 83.22515334 112.7363442 87.31933594 109.19287109 C90.84922047 104.9867396 90.75249519 100.72291754 90.72338867 95.45874023 C90.73368355 94.15536964 90.73368355 94.15536964 90.7441864 92.82566833 C90.76245497 89.95962075 90.75861679 87.09412054 90.75292969 84.22802734 C90.7574915 82.23172325 90.76279707 80.23542072 90.76881409 78.23912048 C90.77774534 74.0570538 90.7753219 69.87517807 90.76538086 65.69311523 C90.75389195 60.33857046 90.77410157 54.98468522 90.803298 49.63022709 C90.82166003 45.50804978 90.8213675 41.38603051 90.81566048 37.26382256 C90.81550726 35.28989169 90.82155197 33.31595011 90.83395195 31.34205818 C90.84885988 28.57975229 90.83818639 25.81866473 90.82104492 23.05639648 C90.83071289 22.2442569 90.84038086 21.43211731 90.8503418 20.59536743 C90.78216167 15.33809672 89.76768347 12.38260986 86.31933594 8.19287109 C82.21824995 4.79503266 78.29236458 4.79278941 73.17480469 4.89990234 C72.40501785 4.90414719 71.63523102 4.90839203 70.84211731 4.9127655 C68.39665948 4.92948512 65.95204237 4.9671234 63.50683594 5.00537109 C61.84343643 5.02042668 60.18002393 5.03411356 58.51660156 5.04638672 C54.45052512 5.07936644 50.3850728 5.13110104 46.31933594 5.19287109 C45.98933594 6.18287109 45.65933594 7.17287109 45.31933594 8.19287109 C43.95808594 8.16193359 43.95808594 8.16193359 42.56933594 8.13037109 C39.45845726 8.06890545 39.45845726 8.06890545 37.06933594 8.75537109 C35.31933594 9.19287109 35.31933594 9.19287109 33.31933594 8.19287109 C31.31973582 8.15287909 29.31886352 8.1494031 27.31933594 8.19287109 C26.82433594 6.70787109 26.82433594 6.70787109 26.31933594 5.19287109 C21.44472118 5.09362287 16.57070097 5.02122529 11.6953125 4.97314453 C10.03863269 4.95309101 8.38202312 4.9258408 6.72558594 4.89111328 C4.33738836 4.84231598 1.95013046 4.81984046 -0.43847656 4.80224609 C-1.17309113 4.78160095 -1.90770569 4.76095581 -2.6645813 4.73968506 C-7.84276847 4.73745099 -10.75873694 5.83490463 -14.68066406 9.19287109 Z " fill="#80A5BB" transform="translate(27.6806640625,4.80712890625)"/>
<path d="M0 0 C0.76978683 0.00424484 1.53957367 0.00848969 2.33268738 0.01286316 C4.77814521 0.02958278 7.22276232 0.06722105 9.66796875 0.10546875 C11.33136826 0.12052434 12.99478076 0.13421121 14.65820312 0.14648438 C18.72427957 0.1794641 22.78973188 0.23119869 26.85546875 0.29296875 C27.41796875 2.23046875 27.41796875 2.23046875 27.85546875 4.29296875 C25.86940863 6.27902887 21.92954201 5.45365394 19.20703125 5.46875 C17.62889292 5.49194849 16.05076787 5.51606584 14.47265625 5.54101562 C11.97517014 5.57615342 9.47817209 5.60548109 6.98046875 5.61889648 C4.57621615 5.63435104 2.17340439 5.67454348 -0.23046875 5.71875 C-0.97743011 5.71684158 -1.72439148 5.71493317 -2.49398804 5.71296692 C-6.51324862 5.774756 -6.51324862 5.774756 -9.84037781 7.79679871 C-11.71293721 11.38090663 -11.570746 14.81241818 -11.54858398 18.76171875 C-11.55544724 19.61419189 -11.56231049 20.46666504 -11.56938171 21.3449707 C-11.58767428 24.16113975 -11.58380912 26.97675308 -11.578125 29.79296875 C-11.58268528 31.75065289 -11.58799039 33.70833543 -11.5940094 35.66601562 C-11.60294507 39.76829534 -11.60051176 43.87038043 -11.59057617 47.97265625 C-11.57907969 53.23214584 -11.59930614 58.49096474 -11.62849331 63.75036621 C-11.64682937 67.7926867 -11.64656814 71.83484564 -11.64085579 75.87719727 C-11.64070229 77.81649721 -11.64677019 79.75580791 -11.65914726 81.69506836 C-11.67400837 84.40521485 -11.66341692 87.11411166 -11.64624023 89.82421875 C-11.6559082 90.62641846 -11.66557617 91.42861816 -11.67553711 92.25512695 C-11.63118123 95.5935596 -11.37781969 97.90516189 -9.64247131 100.78991699 C-6.06724531 102.94118948 -2.72756453 102.85144315 1.32421875 102.81054688 C2.17669189 102.81755615 3.02916504 102.82456543 3.9074707 102.83178711 C6.72380195 102.84938443 9.53912739 102.83773835 12.35546875 102.82421875 C14.313153 102.82691317 16.27083595 102.83079517 18.22851562 102.83581543 C22.33085882 102.84171283 26.43285357 102.83313968 30.53515625 102.81445312 C35.79467503 102.7916635 41.05337739 102.80478528 46.31286621 102.82874298 C50.35520585 102.84319438 54.3973518 102.83859798 58.43969727 102.82823181 C60.37898861 102.82556271 62.31829752 102.82884072 64.25756836 102.83815002 C66.96775925 102.84830477 69.6766265 102.83283003 72.38671875 102.81054688 C73.18891846 102.8186438 73.99111816 102.82674072 74.81762695 102.83508301 C78.15481393 102.78422787 80.46936994 102.52538306 83.35241699 100.78991699 C85.50414814 97.2153486 85.41393921 93.87561121 85.37304688 89.82421875 C85.38005615 88.97174561 85.38706543 88.11927246 85.39428711 87.2409668 C85.41188443 84.42463555 85.40023835 81.60931011 85.38671875 78.79296875 C85.38941317 76.8352845 85.39329517 74.87760155 85.39831543 72.91992188 C85.40421283 68.81757868 85.39563968 64.71558393 85.37695312 60.61328125 C85.3541635 55.35376247 85.36728528 50.09506011 85.39124298 44.83557129 C85.40569438 40.79323165 85.40109798 36.7510857 85.39073181 32.70874023 C85.38806271 30.76944889 85.39134072 28.83013998 85.40065002 26.89086914 C85.41080477 24.18067825 85.39533003 21.471811 85.37304688 18.76171875 C85.3811438 17.95951904 85.38924072 17.15731934 85.39758301 16.33081055 C85.34374298 12.7977513 85.14736407 10.69560642 83.04656982 7.79779053 C79.85469417 5.60564884 76.7695041 5.68995247 73.02734375 5.68359375 C71.90383514 5.65878937 71.90383514 5.65878937 70.75762939 5.63348389 C68.37349221 5.58503365 65.98999264 5.56364103 63.60546875 5.54296875 C61.98564506 5.51480635 60.36585103 5.48487853 58.74609375 5.453125 C54.78260461 5.37927631 50.81946877 5.32968418 46.85546875 5.29296875 C46.29296875 3.35546875 46.29296875 3.35546875 45.85546875 1.29296875 C47.83486641 -0.68642891 51.68961631 0.08166959 54.3984375 0.0546875 C55.15965408 0.04661575 55.92087067 0.03854401 56.70515442 0.03022766 C58.32172354 0.0163679 59.93832217 0.00565424 61.55493164 -0.00219727 C64.01571236 -0.01934136 66.47512537 -0.06319902 68.93554688 -0.10742188 C70.50650054 -0.11755473 72.07746563 -0.12606898 73.6484375 -0.1328125 C74.37991501 -0.15032059 75.11139252 -0.16782867 75.86503601 -0.18586731 C81.0250425 -0.16421026 83.94493917 0.95072426 87.85546875 4.29296875 C91.25118156 8.62985232 91.28882856 12.72664904 91.25952148 18.02709961 C91.26638474 18.89601334 91.27324799 19.76492706 91.28031921 20.66017151 C91.29858778 23.52621909 91.2947496 26.3917193 91.2890625 29.2578125 C91.29362431 31.2541166 91.29892988 33.25041912 91.3049469 35.24671936 C91.31387815 39.42878605 91.31145472 43.61066177 91.30151367 47.79272461 C91.29002476 53.14726939 91.31023438 58.50115462 91.33943081 63.85561275 C91.35779284 67.97779007 91.35750031 72.09980934 91.35179329 76.22201729 C91.35164007 78.19594816 91.35768479 80.16988974 91.37008476 82.14378166 C91.38499269 84.90608755 91.3743192 87.66717512 91.35717773 90.42944336 C91.3668457 91.24158295 91.37651367 92.05372253 91.38647461 92.89047241 C91.31851571 98.1306847 90.40615448 101.19378013 86.85546875 105.29296875 C82.64933725 108.82285328 78.3855152 108.726128 73.12133789 108.69702148 C71.8179673 108.70731636 71.8179673 108.70731636 70.48826599 108.71781921 C67.62221841 108.73608778 64.7567182 108.7322496 61.890625 108.7265625 C59.8943209 108.73112431 57.89801838 108.73642988 55.90171814 108.7424469 C51.71965145 108.75137815 47.53777573 108.74895472 43.35571289 108.73901367 C38.00116811 108.72752476 32.64728288 108.74773438 27.29282475 108.77693081 C23.17064743 108.79529284 19.04862816 108.79500031 14.92642021 108.78929329 C12.95248934 108.78914007 10.97854776 108.79518479 9.00465584 108.80758476 C6.24234995 108.82249269 3.48126238 108.8118192 0.71899414 108.79467773 C-0.49921524 108.80917969 -0.49921524 108.80917969 -1.74203491 108.82397461 C-6.97046451 108.75616852 -10.09566477 107.89615518 -14.14453125 104.29296875 C-17.45361753 99.45789485 -17.58033064 95.18748164 -17.54858398 89.53710938 C-17.55544724 88.67780319 -17.56231049 87.81849701 -17.56938171 86.93315125 C-17.58761816 84.10500362 -17.58381717 81.27741231 -17.578125 78.44921875 C-17.5826879 76.47676412 -17.5879938 74.50431108 -17.5940094 72.53186035 C-17.60293399 68.4028476 -17.60052427 64.27402835 -17.59057617 60.14501953 C-17.57907992 54.85888173 -17.59931148 49.57341129 -17.62849331 44.28736115 C-17.64685442 40.21579766 -17.64656314 36.14439419 -17.64085579 32.07279968 C-17.6407026 30.12398847 -17.64674464 28.1751664 -17.65914726 26.22639465 C-17.67405593 23.50011501 -17.66338179 20.77506963 -17.64624023 18.04882812 C-17.66074219 16.84700142 -17.66074219 16.84700142 -17.67553711 15.62089539 C-17.6068612 10.39424703 -16.56548348 7.46033892 -13.14453125 3.29296875 C-9.04344526 -0.10486968 -5.1175599 -0.10711293 0 0 Z " fill="#000101" transform="translate(27.14453125,9.70703125)"/>
<path d="M0 0 C1.32 0.33 2.64 0.66 4 1 C3.45276317 4.37462715 2.9451 6.08235 1 9 C0.50640614 13.36007907 0.72478136 15.50460646 2.875 19.375 C5.09849947 22.12167582 5.78871693 22.84992953 9.20703125 23.2734375 C15.07233922 23.53737774 15.07233922 23.53737774 20.0625 20.625 C23.10961589 16.49664944 23.34995136 14.16178257 23 9 C22.02308143 7.31970006 21.02611949 5.65071396 20 4 C20.3125 1.6875 20.3125 1.6875 21 0 C22.75 0.0625 22.75 0.0625 25 1 C28.11670529 5.2421822 29.69284853 8.51277608 29.38671875 13.94921875 C28.41906493 19.08071628 26.17429314 22.90958494 22.375 26.4375 C17.16197343 29.86712274 12.12168656 29.56890019 6 29 C1.05413474 26.70370541 -1.30760518 23.68676135 -4 19 C-5.55560224 14.33319328 -6.05172527 10.16596569 -3.8828125 5.69921875 C-2.65231612 3.74224287 -1.38041556 1.8537009 0 0 Z " fill="#070C08" transform="translate(52,33)"/>
<path d="M0 0 C3.42739125 0.0441295 4.85062796 0.10396017 7.8125 1.9375 C9.59591979 5.01795237 9.69936027 6.80260104 9.1875 10.3125 C7.8125 12.6875 7.8125 12.6875 6.1875 14.3125 C5.5275 14.3125 4.8675 14.3125 4.1875 14.3125 C5.033125 15.22 5.87875 16.1275 6.75 17.0625 C9.21353251 19.98275483 9.21353251 19.98275483 9 22.6875 C8.731875 23.22375 8.46375 23.76 8.1875 24.3125 C4.39161134 23.77023019 2.71538007 22.11122437 0.1875 19.3125 C-0.8025 21.7875 -0.8025 21.7875 -1.8125 24.3125 C-3.1325 23.9825 -4.4525 23.6525 -5.8125 23.3125 C-5.84137512 19.66668313 -5.85925585 16.02089537 -5.875 12.375 C-5.88337891 11.33408203 -5.89175781 10.29316406 -5.90039062 9.22070312 C-5.90522461 7.73666992 -5.90522461 7.73666992 -5.91015625 6.22265625 C-5.91539307 5.30621338 -5.92062988 4.38977051 -5.92602539 3.44555664 C-5.71365713 -0.54468313 -3.50375247 0.09746896 0 0 Z " fill="#030604" transform="translate(81.8125,71.6875)"/>
<path d="M0 0 C3.17748194 1.31737937 3.35390912 1.9250337 4.6953125 4.96875 C5.31370723 6.59120498 5.91060249 8.2219809 6.48828125 9.859375 C6.79958984 10.67148438 7.11089844 11.48359375 7.43164062 12.3203125 C8.91878321 16.33396326 10.12647893 19.76146795 9.67578125 24.109375 C8.02578125 23.779375 6.37578125 23.449375 4.67578125 23.109375 C4.67578125 22.119375 4.67578125 21.129375 4.67578125 20.109375 C1.70578125 20.439375 -1.26421875 20.769375 -4.32421875 21.109375 C-4.65421875 22.099375 -4.98421875 23.089375 -5.32421875 24.109375 C-6.97421875 23.779375 -8.62421875 23.449375 -10.32421875 23.109375 C-9.68114819 18.00500247 -8.16253802 13.56176386 -6.32421875 8.796875 C-6.0509375 8.06919922 -5.77765625 7.34152344 -5.49609375 6.59179688 C-3.04408376 0.143251 -3.04408376 0.143251 0 0 Z " fill="#0D160F" transform="translate(63.32421875,71.890625)"/>
<path d="M0 0 C0.7734375 0.00386719 1.546875 0.00773437 2.34375 0.01171875 C4.5 0.3125 4.5 0.3125 7.5 2.3125 C7.5 3.6325 7.5 4.9525 7.5 6.3125 C4.2 5.9825 0.9 5.6525 -2.5 5.3125 C-2.5 6.3025 -2.5 7.2925 -2.5 8.3125 C-0.89125 8.68375 -0.89125 8.68375 0.75 9.0625 C4.56462534 10.33404178 6.22812656 11.04100225 8.5 14.3125 C9.09452734 17.87966403 8.93910956 19.58701464 7.0625 22.6875 C3.29491911 25.07669764 -0.15256735 25.00649384 -4.5 24.3125 C-7.0625 22.8125 -7.0625 22.8125 -8.5 21.3125 C-8.17 19.9925 -7.84 18.6725 -7.5 17.3125 C-4.2 17.6425 -0.9 17.9725 2.5 18.3125 C2.5 17.6525 2.5 16.9925 2.5 16.3125 C1.87351562 15.98636719 1.24703125 15.66023438 0.6015625 15.32421875 C-0.62433594 14.66873047 -0.62433594 14.66873047 -1.875 14 C-2.68710937 13.57074219 -3.49921875 13.14148438 -4.3359375 12.69921875 C-6.5 11.3125 -6.5 11.3125 -8.5 8.3125 C-8.29342707 5.55819425 -7.93277554 3.87044754 -6.23046875 1.67578125 C-4.02155348 -0.06442514 -2.78324031 -0.06030354 0 0 Z " fill="#070C08" transform="translate(28.5,71.6875)"/>
<path d="M0 0 C4.29 0 8.58 0 13 0 C13 1.32 13 2.64 13 4 C11.68 4.33 10.36 4.66 9 5 C9 10.94 9 16.88 9 23 C7.68 23.33 6.36 23.66 5 24 C4 23 4 23 3.88647461 21.23413086 C3.89432983 20.11083374 3.89432983 20.11083374 3.90234375 18.96484375 C3.90556641 18.15595703 3.90878906 17.34707031 3.91210938 16.51367188 C3.92048828 15.66353516 3.92886719 14.81339844 3.9375 13.9375 C3.94201172 13.08349609 3.94652344 12.22949219 3.95117188 11.34960938 C3.96299627 9.23304337 3.98093231 7.11651315 4 5 C2.68 4.67 1.36 4.34 0 4 C0 2.68 0 1.36 0 0 Z " fill="#030503" transform="translate(94,72)"/>
<path d="M0 0 C4.62 0 9.24 0 14 0 C14 1.32 14 2.64 14 4 C12.68 4 11.36 4 10 4 C10 10.27 10 16.54 10 23 C8.35 23.33 6.7 23.66 5 24 C4.67 17.73 4.34 11.46 4 5 C2.68 4.67 1.36 4.34 0 4 C0 2.68 0 1.36 0 0 Z " fill="#080F0A" transform="translate(40,72)"/>
<path d="M0 0 C1.32 0 2.64 0 4 0 C4 5.61 4 11.22 4 17 C2.68 17 1.36 17 0 17 C0 11.39 0 5.78 0 0 Z " fill="#020403" transform="translate(62,28)"/>
<path d="M0 0 C2.475 0.495 2.475 0.495 5 1 C4.67 2.32 4.34 3.64 4 5 C2.68 5 1.36 5 0 5 C0 3.35 0 1.7 0 0 Z " fill="#7CD792" transform="translate(81,77)"/>
</svg>
