<?xml version="1.0" encoding="UTF-8"?>
<svg version="1.1" xmlns="http://www.w3.org/2000/svg" width="128" height="128">
<path d="M0 0 C0.85225159 -0.0071553 1.70450317 -0.01431061 2.58258057 -0.02168274 C3.51457275 -0.02437164 4.44656494 -0.02706055 5.40679932 -0.02983093 C6.39085754 -0.03640213 7.37491577 -0.04297333 8.38879395 -0.04974365 C11.65033035 -0.06947862 14.9118207 -0.08113977 18.17340088 -0.09111023 C19.28723396 -0.09518576 20.40106705 -0.09926128 21.54865265 -0.10346031 C27.44407466 -0.12432195 33.33947338 -0.13862325 39.23492432 -0.147995 C45.32248014 -0.15905922 51.40967041 -0.19345937 57.49709702 -0.23316669 C62.17945025 -0.25931857 66.8617162 -0.26768559 71.54413605 -0.27127647 C73.78799152 -0.27614614 76.031843 -0.28777087 78.27562714 -0.30631447 C81.41860376 -0.33067464 84.56063209 -0.32974625 87.70367432 -0.32279968 C88.62756958 -0.33560974 89.55146484 -0.3484198 90.50335693 -0.36161804 C97.20559438 -0.30772407 101.50701375 1.11450743 106.55621338 5.74482727 C109.55652854 9.62454515 110.92900223 12.37165313 110.97515869 17.2480011 C110.98476624 18.06927994 110.99437378 18.89055878 111.00427246 19.73672485 C111.01064728 21.06331367 111.01064728 21.06331367 111.01715088 22.41670227 C111.02285095 23.33046127 111.02855103 24.24422028 111.03442383 25.18566895 C111.04387006 27.11984602 111.05040631 29.05403917 111.05426025 30.98823547 C111.06395461 33.93798638 111.09497686 36.88703709 111.12652588 39.83662415 C111.13305736 41.71747939 111.13830726 43.59833961 111.14215088 45.47920227 C111.15449768 46.35752213 111.16684448 47.23584198 111.17956543 48.14077759 C111.15870962 53.91388228 110.39540575 58.311095 106.34918213 62.75654602 C102.09190338 66.05396086 98.96707916 68.38984986 93.50779724 68.41459656 C92.22735786 68.42739151 92.22735786 68.42739151 90.92105103 68.44044495 C89.99265411 68.43953857 89.0642572 68.4386322 88.10772705 68.43769836 C87.1235228 68.44441559 86.13931854 68.45113281 85.12528992 68.45805359 C81.86914023 68.47706316 78.61319637 68.48095942 75.35699463 68.48310852 C73.0926149 68.48953483 70.82823601 68.49626306 68.56385803 68.50328064 C63.81511511 68.51526113 59.06644496 68.51896071 54.31768799 68.51777649 C48.23797999 68.51757336 42.15873976 68.54486611 36.07914257 68.57932091 C31.40106572 68.60157932 26.72310157 68.60561433 22.04497719 68.60455704 C19.80392153 68.60691494 17.56286285 68.6157491 15.32185936 68.63122177 C12.18374452 68.65085786 9.04664005 68.64505229 5.9085083 68.63301086 C4.98618408 68.64424988 4.06385986 68.65548889 3.11358643 68.66706848 C-3.57918315 68.60194098 -7.88608708 67.17330062 -12.92816162 62.54951477 C-15.92847678 58.66979689 -17.30095048 55.92268891 -17.34710693 51.04634094 C-17.35671448 50.2250621 -17.36632202 49.40378326 -17.3762207 48.55761719 C-17.38047058 47.67322464 -17.38472046 46.78883209 -17.38909912 45.87763977 C-17.39479919 44.96388077 -17.40049927 44.05012177 -17.40637207 43.1086731 C-17.4158183 41.17449602 -17.42235456 39.24030287 -17.4262085 37.30610657 C-17.43590285 34.35635567 -17.4669251 31.40730495 -17.49847412 28.4577179 C-17.5050056 26.57686265 -17.5102555 24.69600243 -17.51409912 22.81513977 C-17.52644592 21.93681992 -17.53879272 21.05850006 -17.55151367 20.15356445 C-17.5299859 14.19445266 -16.65855163 9.82766982 -12.46722412 5.28388977 C-11.87941162 4.80564758 -11.29159912 4.3274054 -10.68597412 3.83467102 C-10.09816162 3.34353821 -9.51034912 2.8524054 -8.90472412 2.34638977 C-5.99894219 0.31894647 -3.43392994 0.01982213 0 0 Z " fill="#FE875A" transform="translate(17.18597412109375,29.852828979492188)"/>
<path d="M0 0 C7.13488557 -0.10166265 14.26958338 -0.17157591 21.4050293 -0.21972656 C23.83088156 -0.23980571 26.25668563 -0.26707475 28.68237305 -0.30175781 C32.17508862 -0.35043678 35.66716259 -0.3730065 39.16015625 -0.390625 C40.23959 -0.41127014 41.31902374 -0.43191528 42.4311676 -0.45318604 C49.74589707 -0.45535153 54.22613902 0.53921717 59.7421875 5.59765625 C62.74250266 9.47737413 64.11497636 12.22448211 64.16113281 17.10083008 C64.17074036 17.92210892 64.1803479 18.74338776 64.19024658 19.58955383 C64.19449646 20.47394638 64.19874634 21.35833893 64.203125 22.26953125 C64.20882507 23.18329025 64.21452515 24.09704926 64.22039795 25.03849792 C64.22984418 26.972675 64.23638043 28.90686815 64.24023438 30.84106445 C64.24992873 33.79081536 64.28095098 36.73986607 64.3125 39.68945312 C64.31903148 41.57030837 64.32428138 43.45116859 64.328125 45.33203125 C64.3404718 46.2103511 64.3528186 47.08867096 64.36553955 47.99360657 C64.34468374 53.76671126 63.58137987 58.16392398 59.53515625 62.609375 C54.85355383 66.23544371 51.83683116 68.25661798 45.86425781 68.22705078 C44.84350159 68.22689972 43.82274536 68.22674866 42.77105713 68.22659302 C41.67613953 68.21627045 40.58122192 68.20594788 39.453125 68.1953125 C37.76361725 68.19106766 37.76361725 68.19106766 36.03997803 68.18673706 C32.44321054 68.17554374 28.84669221 68.15044037 25.25 68.125 C22.81120151 68.11496912 20.37239912 68.10584346 17.93359375 68.09765625 C11.95555598 68.07730895 5.97805685 68.03815781 0 68 C0 59.75 0 51.5 0 43 C1.32 43 2.64 43 4 43 C4.66 44.32 5.32 45.64 6 47 C6.99 47 7.98 47 9 47 C8.64725164 42.80621393 7.90291728 39.48164698 6.15234375 35.64453125 C5.79462891 34.85498047 5.43691406 34.06542969 5.06835938 33.25195312 C4.33306427 31.66579841 3.57625019 30.08938287 2.79492188 28.52539062 C-1.24101438 19.39527081 -0.3385248 9.76945561 0 0 Z " fill="#FE5D5C" transform="translate(64,30)"/>
<path d="M0 0 C0.87269531 -0.01417969 1.74539062 -0.02835938 2.64453125 -0.04296875 C5.36320266 0.2034239 6.91131213 0.70131226 9.1875 2.1875 C11.66788907 5.9080836 11.65087203 7.78546571 11.1875 12.1875 C9.3125 14.625 9.3125 14.625 7.1875 16.1875 C6.5275 16.1875 5.8675 16.1875 5.1875 16.1875 C5.85458984 16.85845703 5.85458984 16.85845703 6.53515625 17.54296875 C8.23989217 19.36420143 9.79597964 21.11520506 11.1875 23.1875 C11.0625 26.125 11.0625 26.125 10.1875 28.1875 C6.36813472 26.63146229 3.92705562 24.23145069 1.1875 21.1875 C1.1875 20.5275 1.1875 19.8675 1.1875 19.1875 C0.5275 19.1875 -0.1325 19.1875 -0.8125 19.1875 C-0.8125 21.8275 -0.8125 24.4675 -0.8125 27.1875 C-2.75 27.75 -2.75 27.75 -4.8125 28.1875 C-6.58699594 26.41300406 -5.94280072 23.83732739 -5.9453125 21.4375 C-5.94660156 20.2721875 -5.94789062 19.106875 -5.94921875 17.90625 C-5.94535156 16.6790625 -5.94148438 15.451875 -5.9375 14.1875 C-5.94136719 12.9603125 -5.94523437 11.733125 -5.94921875 10.46875 C-5.94792969 9.3034375 -5.94664063 8.138125 -5.9453125 6.9375 C-5.94418457 5.85984375 -5.94305664 4.7821875 -5.94189453 3.671875 C-5.71683275 -0.64931111 -3.86237076 0.02827504 0 0 Z " fill="#E3D8EC" transform="translate(82.8125,49.8125)"/>
<path d="M0 0 C1.32 0 2.64 0 4 0 C5.51444506 3.55652922 7.00896311 7.12110094 8.5 10.6875 C8.92925781 11.69490234 9.35851562 12.70230469 9.80078125 13.74023438 C10.40986328 15.20493164 10.40986328 15.20493164 11.03125 16.69921875 C11.40830078 17.59471436 11.78535156 18.49020996 12.17382812 19.4128418 C13.03079756 22.09644258 13.15873016 24.20238098 13 27 C11.68 27.33 10.36 27.66 9 28 C7 25 7 25 7 22 C3.59922821 22.07018478 0.3221254 22.24035136 -3 23 C-5.21306951 25.37255115 -5.21306951 25.37255115 -6 28 C-7.32 27.34 -8.64 26.68 -10 26 C-8.3422142 19.81965819 -6.2481251 13.87314971 -3.875 7.9375 C-3.60929199 7.27032959 -3.34358398 6.60315918 -3.06982422 5.91577148 C-1.13128939 1.13128939 -1.13128939 1.13128939 0 0 Z " fill="#E4D9EB" transform="translate(61,50)"/>
<path d="M0 0 C2.9375 1.25 2.9375 1.25 5 3 C5 4.32 5 5.64 5 7 C3.33388095 7.042721 1.66617115 7.04063832 0 7 C-0.33 6.67 -0.66 6.34 -1 6 C-2.66617115 5.95936168 -4.33388095 5.957279 -6 6 C-6 6.99 -6 7.98 -6 9 C-5.30132812 9.32613281 -4.60265625 9.65226562 -3.8828125 9.98828125 C-2.97273438 10.42527344 -2.06265625 10.86226562 -1.125 11.3125 C-0.22007813 11.74175781 0.68484375 12.17101563 1.6171875 12.61328125 C4 14 4 14 6 17 C5.67161996 23.12976072 5.67161996 23.12976072 3.71875 25.66015625 C0.55522033 28.12627142 -3.09147903 28.22600291 -7 28 C-10.5625 26.3125 -10.5625 26.3125 -13 24 C-13 22.68 -13 21.36 -13 20 C-11.9790625 20.2165625 -11.9790625 20.2165625 -10.9375 20.4375 C-7.63726918 21.06945909 -4.32855574 21.54313941 -1 22 C-0.67 20.68 -0.34 19.36 0 18 C-0.61488281 17.74605469 -1.22976562 17.49210937 -1.86328125 17.23046875 C-2.67152344 16.88628906 -3.47976562 16.54210937 -4.3125 16.1875 C-5.11300781 15.85105469 -5.91351563 15.51460937 -6.73828125 15.16796875 C-9.01945534 13.98995312 -10.41972851 13.01397376 -12 11 C-12.5 7.5625 -12.5 7.5625 -12 4 C-8.43754928 -0.21016903 -5.35404223 -0.66925528 0 0 Z " fill="#F1EAE9" transform="translate(28,50)"/>
<path d="M0 0 C1.39456452 0.00667256 2.78911118 0.01863093 4.18359375 0.03515625 C4.89451172 0.03966797 5.60542969 0.04417969 6.33789062 0.04882812 C8.09899388 0.06064761 9.86005411 0.07858362 11.62109375 0.09765625 C12.28109375 1.41765625 12.94109375 2.73765625 13.62109375 4.09765625 C13.29109375 4.42765625 12.96109375 4.75765625 12.62109375 5.09765625 C10.64109375 5.09765625 8.66109375 5.09765625 6.62109375 5.09765625 C6.62109375 12.35765625 6.62109375 19.61765625 6.62109375 27.09765625 C5.30109375 27.09765625 3.98109375 27.09765625 2.62109375 27.09765625 C1.62109375 26.09765625 1.62109375 26.09765625 1.50756836 24.05639648 C1.51280518 23.18184814 1.51804199 22.3072998 1.5234375 21.40625 C1.52666016 20.46201172 1.52988281 19.51777344 1.53320312 18.54492188 C1.54158203 17.55169922 1.54996094 16.55847656 1.55859375 15.53515625 C1.56310547 14.53806641 1.56761719 13.54097656 1.57226562 12.51367188 C1.58409368 10.04160776 1.60057526 7.56966107 1.62109375 5.09765625 C-0.02890625 5.09765625 -1.67890625 5.09765625 -3.37890625 5.09765625 C-3.94140625 3.16015625 -3.94140625 3.16015625 -4.37890625 1.09765625 C-3.37890625 0.09765625 -3.37890625 0.09765625 0 0 Z " fill="#E4D3E6" transform="translate(100.37890625,49.90234375)"/>
<path d="M0 0 C1.93166016 0.01740234 1.93166016 0.01740234 3.90234375 0.03515625 C5.19269531 0.04417969 6.48304687 0.05320313 7.8125 0.0625 C8.81152344 0.07410156 9.81054688 0.08570313 10.83984375 0.09765625 C11.49984375 1.41765625 12.15984375 2.73765625 12.83984375 4.09765625 C12.50984375 4.42765625 12.17984375 4.75765625 11.83984375 5.09765625 C9.85984375 5.09765625 7.87984375 5.09765625 5.83984375 5.09765625 C5.83984375 12.35765625 5.83984375 19.61765625 5.83984375 27.09765625 C4.51984375 27.09765625 3.19984375 27.09765625 1.83984375 27.09765625 C0.83984375 26.09765625 0.83984375 26.09765625 0.72631836 24.05639648 C0.73155518 23.18184814 0.73679199 22.3072998 0.7421875 21.40625 C0.74541016 20.46201172 0.74863281 19.51777344 0.75195312 18.54492188 C0.76033203 17.55169922 0.76871094 16.55847656 0.77734375 15.53515625 C0.78185547 14.53806641 0.78636719 13.54097656 0.79101562 12.51367188 C0.80284368 10.04160776 0.81932526 7.56966107 0.83984375 5.09765625 C-0.81015625 5.09765625 -2.46015625 5.09765625 -4.16015625 5.09765625 C-4.16015625 0.1285586 -4.16015625 0.1285586 0 0 Z " fill="#F2E7E6" transform="translate(41.16015625,49.90234375)"/>
<path d="M0 0 C1.32 0 2.64 0 4 0 C4 2.64 4 5.28 4 8 C3.34 8 2.68 8 2 8 C1.34 10.97 0.68 13.94 0 17 C1.32 17 2.64 17 4 17 C4 18.32 4 19.64 4 21 C3.071875 21.061875 2.14375 21.12375 1.1875 21.1875 C-2.1890663 21.68827104 -2.1890663 21.68827104 -3.875 24.5625 C-4.24625 25.366875 -4.6175 26.17125 -5 27 C-6.32 26.34 -7.64 25.68 -9 25 C-6.68860831 16.38296958 -3.39204534 8.23311977 0 0 Z " fill="#F1ECEC" transform="translate(60,51)"/>
<path d="M0 0 C2.375 -0.125 2.375 -0.125 5 0 C7 2 7 2 7 6 C4.69 6.33 2.38 6.66 0 7 C0 4.69 0 2.38 0 0 Z " fill="#FC6768" transform="translate(82,55)"/>
<path d="M0 0 C0.66 0.33 1.32 0.66 2 1 C2.625 4.0625 2.625 4.0625 3 7 C1.35 7 -0.3 7 -2 7 C-1.34 4.69 -0.68 2.38 0 0 Z " fill="#FE8762" transform="translate(62,60)"/>
</svg>
