<?xml version="1.0" encoding="UTF-8"?>
<svg version="1.1" xmlns="http://www.w3.org/2000/svg" width="128" height="128">
<path d="M0 0 C0.70672348 -0.00335861 1.41344696 -0.00671722 2.1415863 -0.01017761 C4.45793457 -0.01960913 6.77420994 -0.0216268 9.09057617 -0.02270508 C10.71571379 -0.02592318 12.34085113 -0.02928766 13.96598816 -0.03279114 C17.36600414 -0.03876299 20.76599477 -0.04063305 24.16601562 -0.04003906 C28.49981501 -0.03993758 32.83345007 -0.05358465 37.16721058 -0.07081127 C40.5226057 -0.08198847 43.87796182 -0.08395652 47.23337364 -0.08342934 C48.82998915 -0.08460104 50.42660594 -0.08897677 52.0232029 -0.0967617 C75.97556669 -0.20261892 75.97556669 -0.20261892 85.57104492 8.14526367 C92.60383922 15.84067671 94.23090506 22.9020578 93.94213867 33.12182617 C93.44629886 40.67764852 90.14005849 45.97767702 84.69604492 51.08276367 C76.93341348 57.27247918 68.92385652 58.26114264 59.14208984 58.29052734 C58.08200462 58.29556526 58.08200462 58.29556526 57.00050354 58.30070496 C54.68415527 58.31013647 52.3678799 58.31215414 50.05151367 58.31323242 C48.42637605 58.31645052 46.80123871 58.319815 45.17610168 58.32331848 C41.7760857 58.32929034 38.37609507 58.3311604 34.97607422 58.33056641 C30.64227484 58.33046492 26.30863977 58.34411199 21.97487926 58.36133862 C18.61948414 58.37251581 15.26412803 58.37448386 11.9087162 58.37395668 C10.3121007 58.37512838 8.7154839 58.37950412 7.11888695 58.38728905 C-16.83347685 58.49314626 -16.83347685 58.49314626 -26.42895508 50.14526367 C-33.46174938 42.44985063 -35.08881521 35.38846955 -34.80004883 25.16870117 C-34.30420902 17.61287882 -30.99796865 12.31285032 -25.55395508 7.20776367 C-17.79132363 1.01804817 -9.78176668 0.0293847 0 0 Z " fill="#FDFDFD" transform="translate(34.428955078125,34.854736328125)"/>
<path d="M0 0 C0.70672348 -0.00335861 1.41344696 -0.00671722 2.1415863 -0.01017761 C4.45793457 -0.01960913 6.77420994 -0.0216268 9.09057617 -0.02270508 C10.71571379 -0.02592318 12.34085113 -0.02928766 13.96598816 -0.03279114 C17.36600414 -0.03876299 20.76599477 -0.04063305 24.16601562 -0.04003906 C28.49981501 -0.03993758 32.83345007 -0.05358465 37.16721058 -0.07081127 C40.5226057 -0.08198847 43.87796182 -0.08395652 47.23337364 -0.08342934 C48.82998915 -0.08460104 50.42660594 -0.08897677 52.0232029 -0.0967617 C75.97556669 -0.20261892 75.97556669 -0.20261892 85.57104492 8.14526367 C92.60383922 15.84067671 94.23090506 22.9020578 93.94213867 33.12182617 C93.44629886 40.67764852 90.14005849 45.97767702 84.69604492 51.08276367 C76.93341348 57.27247918 68.92385652 58.26114264 59.14208984 58.29052734 C58.08200462 58.29556526 58.08200462 58.29556526 57.00050354 58.30070496 C54.68415527 58.31013647 52.3678799 58.31215414 50.05151367 58.31323242 C48.42637605 58.31645052 46.80123871 58.319815 45.17610168 58.32331848 C41.7760857 58.32929034 38.37609507 58.3311604 34.97607422 58.33056641 C30.64227484 58.33046492 26.30863977 58.34411199 21.97487926 58.36133862 C18.61948414 58.37251581 15.26412803 58.37448386 11.9087162 58.37395668 C10.3121007 58.37512838 8.7154839 58.37950412 7.11888695 58.38728905 C-16.83347685 58.49314626 -16.83347685 58.49314626 -26.42895508 50.14526367 C-33.46174938 42.44985063 -35.08881521 35.38846955 -34.80004883 25.16870117 C-34.30420902 17.61287882 -30.99796865 12.31285032 -25.55395508 7.20776367 C-17.79132363 1.01804817 -9.78176668 0.0293847 0 0 Z M-21.13598633 14.70776367 C-26.19297395 21.2836345 -27.34630608 25.86617087 -26.42895508 34.14526367 C-24.44065827 40.85576542 -20.46540077 44.48433925 -14.73809814 48.25991821 C-11.36393033 49.55360339 -8.04634835 49.44010253 -4.48266602 49.43579102 C-3.28674583 49.44586685 -3.28674583 49.44586685 -2.06666565 49.45614624 C0.56784307 49.4751354 3.20209703 49.47905125 5.83666992 49.48120117 C7.67266952 49.48762978 9.50866808 49.49435819 11.34466553 49.50137329 C15.19472629 49.51334929 19.04469732 49.51705392 22.89477539 49.51586914 C27.81531376 49.51566624 32.73527272 49.54293735 37.65567398 49.57741356 C41.4493674 49.59971445 45.24292226 49.60370566 49.0366745 49.60264969 C50.84987123 49.60500204 52.66307199 49.61380486 54.47620392 49.62931442 C57.02026697 49.64903399 59.56309236 49.64311301 62.10717773 49.63110352 C62.84824265 49.64234253 63.58930756 49.65358154 64.35282898 49.66516113 C70.36350513 49.59349536 75.61652472 47.86668552 80.10390091 43.73334312 C85.23766513 37.89792968 86.03129594 32.55556566 85.88354492 25.02026367 C85.3044353 19.69245518 82.44800097 16.8154607 78.63354492 13.39526367 C73.31775554 9.48978576 68.98942423 8.84685821 62.49536133 8.85473633 C61.69632889 8.8480191 60.89729645 8.84130188 60.0740509 8.8343811 C57.44017265 8.81542813 54.80654957 8.81147834 52.17260742 8.80932617 C50.33564144 8.80289654 48.49867649 8.79616805 46.66171265 8.78915405 C42.81343207 8.77718818 38.96524122 8.77347254 35.11694336 8.7746582 C30.19521493 8.77486139 25.27406393 8.74755633 20.35247231 8.71311378 C16.55882138 8.69083444 12.76530922 8.68682097 8.97159958 8.68787766 C7.15757634 8.68552337 5.34354918 8.67670958 3.52959061 8.66121292 C0.98782596 8.64153096 -1.5526961 8.64739899 -4.09448242 8.65942383 C-4.83757156 8.64818481 -5.58066071 8.6369458 -6.3462677 8.62536621 C-12.47635515 8.69874984 -16.62059684 10.57468405 -21.13598633 14.70776367 Z " fill="#70E79C" transform="translate(34.428955078125,34.854736328125)"/>
<path d="M0 0 C10.38179946 -0.38451109 18.95251264 0.99883986 27 8 C34.0327943 15.69541304 35.65986013 22.75679412 35.37109375 32.9765625 C34.87525394 40.53238485 31.56901357 45.83241335 26.125 50.9375 C18.18181324 57.2711855 9.91294415 58.1739113 0 58 C2.86138511 56.09240993 4.37527551 55.60747758 7.625 54.875 C14.63786904 52.80394803 19.8104558 48.84793213 23.44921875 42.453125 C26.52523962 34.98433047 27.57059571 27.06643779 25.15234375 19.265625 C21.84918066 11.8754974 17.20786908 6.62620628 9.59375 3.68359375 C6.41221846 2.69109424 3.23616254 1.79424111 0 1 C0 0.67 0 0.34 0 0 Z " fill="#04D8A2" transform="translate(93,35)"/>
<path d="M0 0 C2.6768096 0.05286339 4.18684588 0.249722 6.6875 1.3125 C9.00841376 4.31034694 8.63863866 6.57644233 8.1875 10.25 C6.6875 12.6875 6.6875 12.6875 5.1875 14.25 C5.6825 14.8275 6.1775 15.405 6.6875 16 C8.1875 18.25 8.1875 18.25 8.1875 22.25 C4.82158134 20.80746343 2.67702921 18.91735273 0.1875 16.25 C-0.4725 18.23 -1.1325 20.21 -1.8125 22.25 C-2.8025 21.92 -3.7925 21.59 -4.8125 21.25 C-4.84138146 17.93751813 -4.85925799 14.62506833 -4.875 11.3125 C-4.88337891 10.36697266 -4.89175781 9.42144531 -4.90039062 8.44726562 C-4.90361328 7.54814453 -4.90683594 6.64902344 -4.91015625 5.72265625 C-4.91539307 4.89000244 -4.92062988 4.05734863 -4.92602539 3.19946289 C-4.71723991 -0.38581031 -3.75710407 0.24636748 0 0 Z " fill="#766973" transform="translate(80.8125,52.75)"/>
<path d="M0 0 C0.99 0 1.98 0 3 0 C4.20386463 2.72295566 5.38815758 5.45184137 6.5625 8.1875 C6.90474609 8.95642578 7.24699219 9.72535156 7.59960938 10.51757812 C10.61142744 17.60599841 10.61142744 17.60599841 9 22 C8.01 21.67 7.02 21.34 6 21 C5.67 20.01 5.34 19.02 5 18 C2.36 17.67 -0.28 17.34 -3 17 C-3.99 19.475 -3.99 19.475 -5 22 C-5.66 22 -6.32 22 -7 22 C-7.38853854 16.68446216 -6.10200504 12.97123607 -4.0625 8.1875 C-3.78470703 7.50751953 -3.50691406 6.82753906 -3.22070312 6.12695312 C-1.16952328 1.16952328 -1.16952328 1.16952328 0 0 Z " fill="#766973" transform="translate(62,53)"/>
<path d="M0 0 C2.375 1.5 2.375 1.5 4 3 C3.67 3.99 3.34 4.98 3 6 C0.36 5.67 -2.28 5.34 -5 5 C-5 5.66 -5 6.32 -5 7 C-4.43410156 7.27714844 -3.86820313 7.55429687 -3.28515625 7.83984375 C-2.55167969 8.20207031 -1.81820313 8.56429687 -1.0625 8.9375 C0.03384766 9.47697266 0.03384766 9.47697266 1.15234375 10.02734375 C3 11 3 11 4 12 C4.3125 15.375 4.3125 15.375 4 19 C1.8188908 21.60055327 0.4063779 21.93947563 -2.9375 22.4375 C-6.66673022 21.90475283 -8.29265709 20.54808744 -11 18 C-10.505 16.515 -10.505 16.515 -10 15 C-8.88625 15.495 -8.88625 15.495 -7.75 16 C-4.86116688 17.22782871 -4.86116688 17.22782871 -1 17 C-1 16.01 -1 15.02 -1 14 C-1.56589844 13.78085938 -2.13179687 13.56171875 -2.71484375 13.3359375 C-8.685602 10.7545552 -8.685602 10.7545552 -10.25 7 C-10 4 -10 4 -8.4375 1.625 C-5.32593514 -0.44937658 -3.67692853 -0.53621874 0 0 Z " fill="#7A6E78" transform="translate(33,53)"/>
<path d="M0 0 C3.96 0 7.92 0 12 0 C12 1.32 12 2.64 12 4 C10.68 4 9.36 4 8 4 C8 9.61 8 15.22 8 21 C6.68 21 5.36 21 4 21 C4 15.39 4 9.78 4 4 C2.35 3.67 0.7 3.34 -1 3 C-0.67 2.01 -0.34 1.02 0 0 Z " fill="#766973" transform="translate(93,53)"/>
<path d="M0 0 C3.96 0 7.92 0 12 0 C12 1.32 12 2.64 12 4 C10.68 4 9.36 4 8 4 C8 9.61 8 15.22 8 21 C6.68 21 5.36 21 4 21 C4 15.39 4 9.78 4 4 C2.68 4 1.36 4 0 4 C0 2.68 0 1.36 0 0 Z " fill="#776A74" transform="translate(41,53)"/>
<path d="M0 0 C2.475 0.495 2.475 0.495 5 1 C5 2.32 5 3.64 5 5 C3.35 5 1.7 5 0 5 C0 3.35 0 1.7 0 0 Z " fill="#F2F1F2" transform="translate(80,57)"/>
<path d="M0 0 C3 3.75 3 3.75 3 6 C1.35 6 -0.3 6 -2 6 C-1.125 1.125 -1.125 1.125 0 0 Z " fill="#DCD8DB" transform="translate(63,61)"/>
</svg>
