<?xml version="1.0" standalone="no"?>
<!DOCTYPE svg PUBLIC "-//W3C//DTD SVG 20010904//EN"
 "http://www.w3.org/TR/2001/REC-SVG-20010904/DTD/svg10.dtd">
<svg version="1.0" xmlns="http://www.w3.org/2000/svg"
 width="128.000000pt" height="128.000000pt" viewBox="0 0 128.000000 128.000000"
 preserveAspectRatio="xMidYMid meet">

<g transform="translate(0.000000,128.000000) scale(0.100000,-0.100000)"
fill="#000000" stroke="none">
<path d="M127 965 c-50 -17 -85 -50 -108 -100 -16 -34 -19 -66 -19 -225 0
-158 3 -191 19 -225 22 -50 69 -91 119 -105 50 -14 954 -14 1004 0 50 14 97
55 119 105 16 34 19 67 19 225 0 158 -3 191 -19 225 -22 50 -69 91 -119 105
-60 16 -967 13 -1015 -5z m169 -201 c20 -10 34 -24 34 -34 0 -25 -20 -30 -53
-13 -31 16 -67 9 -67 -12 0 -8 26 -27 58 -42 67 -33 86 -67 61 -111 -32 -57
-111 -65 -166 -18 -23 20 -25 26 -14 39 11 15 16 14 49 -3 43 -23 52 -24 76
-7 26 19 11 42 -40 62 -58 22 -74 39 -74 79 0 64 66 93 136 60z m234 1 c16
-19 5 -32 -30 -37 -25 -3 -25 -4 -28 -108 -3 -110 -13 -139 -38 -106 -10 14
-14 48 -14 118 0 97 0 98 -24 98 -30 0 -42 16 -26 35 18 21 143 21 160 0z
m117 3 c20 -26 95 -238 90 -253 -10 -23 -26 -18 -45 15 -15 27 -22 30 -64 30
-43 0 -49 -3 -63 -30 -17 -33 -27 -37 -43 -17 -7 8 3 47 35 132 49 131 66 154
90 123z m246 0 c33 -17 46 -39 47 -75 0 -32 -22 -65 -51 -75 -10 -4 -5 -15 19
-40 17 -19 32 -41 32 -50 0 -35 -24 -29 -71 18 l-49 48 0 -41 c0 -46 -13 -61
-35 -43 -19 16 -22 239 -3 258 15 15 83 16 111 0z m237 -3 c16 -19 5 -32 -30
-37 -25 -3 -25 -4 -28 -108 -3 -109 -10 -132 -37 -110 -12 10 -15 35 -15 116
0 104 0 104 -24 104 -30 0 -42 16 -26 35 18 21 143 21 160 0z"/>
<path d="M611 648 c-6 -17 -11 -33 -11 -34 0 -2 13 -4 29 -4 29 0 30 1 19 30
-14 42 -24 45 -37 8z"/>
<path d="M820 695 c0 -36 15 -44 54 -29 35 14 11 64 -31 64 -20 0 -23 -5 -23
-35z"/>
</g>
</svg>
