<?xml version="1.0" standalone="no"?>
<!DOCTYPE svg PUBLIC "-//W3C//DTD SVG 20010904//EN"
 "http://www.w3.org/TR/2001/REC-SVG-20010904/DTD/svg10.dtd">
<svg version="1.0" xmlns="http://www.w3.org/2000/svg"
 width="128.000000pt" height="128.000000pt" viewBox="0 0 128.000000 128.000000"
 preserveAspectRatio="xMidYMid meet">

<g transform="translate(0.000000,128.000000) scale(0.100000,-0.100000)"
fill="#000000" stroke="none">
<path d="M194 899 c-59 -17 -125 -72 -158 -129 -27 -48 -31 -64 -31 -130 0
-58 6 -85 22 -116 28 -53 74 -99 127 -127 41 -22 46 -22 486 -22 440 0 445 0
486 22 53 28 99 74 127 127 31 58 31 174 0 232 -28 53 -74 99 -127 127 -40 22
-48 22 -471 24 -242 1 -444 -2 -461 -8z m911 -48 c49 -23 99 -74 119 -123 21
-50 20 -134 -3 -183 -23 -51 -89 -111 -138 -124 -52 -15 -834 -15 -886 0 -49
13 -115 73 -138 124 -38 82 -19 187 44 254 68 71 63 71 537 71 393 0 428 -2
465 -19z"/>
<path d="M130 645 c0 -69 3 -125 6 -125 9 0 163 114 163 120 0 3 -38 33 -84
68 l-85 62 0 -125z m100 -5 c0 -5 -13 -18 -30 -30 l-30 -21 0 51 0 51 30 -21
c17 -12 30 -25 30 -30z"/>
<path d="M337 752 c-35 -39 -10 -87 48 -94 48 -5 39 -32 -12 -36 -35 -3 -43
-7 -43 -23 0 -15 7 -19 34 -19 51 0 85 16 92 44 9 38 -11 65 -56 72 -57 9 -53
34 5 34 38 0 45 3 45 20 0 17 -7 20 -48 20 -35 0 -54 -5 -65 -18z"/>
<path d="M490 750 c0 -16 7 -20 30 -20 l30 0 0 -75 c0 -60 3 -75 15 -75 12 0
15 15 15 75 l0 75 30 0 c23 0 30 4 30 20 0 18 -7 20 -75 20 -68 0 -75 -2 -75
-20z"/>
<path d="M691 744 c-17 -21 -21 -41 -21 -95 0 -62 2 -69 20 -69 13 0 20 7 20
20 0 16 7 20 30 20 23 0 30 -4 30 -20 0 -13 7 -20 20 -20 18 0 20 7 20 69 0
82 -23 121 -70 121 -19 0 -36 -9 -49 -26z m77 -51 c3 -31 1 -33 -27 -33 -27 0
-31 3 -31 28 0 35 8 44 35 40 15 -2 21 -12 23 -35z"/>
<path d="M850 675 c0 -78 3 -95 15 -95 11 0 15 11 15 36 0 31 3 35 23 32 15
-2 25 -13 32 -35 15 -51 36 -42 35 15 -1 26 2 59 5 74 10 40 -23 68 -80 68
l-45 0 0 -95z m90 35 c0 -16 -7 -20 -30 -20 -23 0 -30 4 -30 20 0 16 7 20 30
20 23 0 30 -4 30 -20z"/>
<path d="M1010 750 c0 -16 7 -20 30 -20 l30 0 0 -75 c0 -60 3 -75 15 -75 12 0
15 15 15 75 l0 75 30 0 c23 0 30 4 30 20 0 18 -7 20 -75 20 -68 0 -75 -2 -75
-20z"/>
<path d="M330 531 c0 -15 6 -21 21 -21 14 0 19 5 17 17 -5 26 -38 29 -38 4z"/>
<path d="M407 543 c-4 -3 -7 -12 -7 -20 0 -10 59 -13 315 -13 308 0 315 0 315
20 0 20 -7 20 -308 20 -170 0 -312 -3 -315 -7z"/>
<path d="M1070 531 c0 -15 6 -21 21 -21 25 0 22 33 -4 38 -12 2 -17 -3 -17
-17z"/>
</g>
</svg>
