<?xml version="1.0" standalone="no"?>
<!DOCTYPE svg PUBLIC "-//W3C//DTD SVG 20010904//EN"
 "http://www.w3.org/TR/2001/REC-SVG-20010904/DTD/svg10.dtd">
<svg version="1.0" xmlns="http://www.w3.org/2000/svg"
 width="128.000000pt" height="128.000000pt" viewBox="0 0 128.000000 128.000000"
 preserveAspectRatio="xMidYMid meet">

<g transform="translate(0.000000,128.000000) scale(0.100000,-0.100000)"
fill="#000000" stroke="none">
<path d="M145 1265 c-51 -18 -120 -91 -134 -141 -15 -54 -15 -914 0 -969 14
-51 93 -130 146 -144 57 -16 913 -15 967 1 54 16 128 90 144 144 16 54 17 910
1 967 -14 53 -93 132 -144 146 -65 18 -929 14 -980 -4z m960 -46 c50 -14 100
-64 114 -114 15 -55 15 -875 0 -930 -14 -50 -64 -100 -114 -114 -55 -15 -875
-15 -930 0 -50 14 -100 64 -114 114 -15 54 -15 875 0 928 14 50 55 95 104 112
51 18 876 22 940 4z"/>
<path d="M139 1141 l-39 -39 0 -462 0 -462 39 -39 39 -39 462 0 462 0 39 39
39 39 0 462 0 462 -39 39 -39 39 -187 0 -186 0 3 -22 c3 -23 6 -23 181 -28
173 -5 179 -6 198 -29 18 -22 19 -45 19 -463 l0 -439 -25 -24 -24 -25 -441 0
-441 0 -24 25 -25 24 0 439 c0 418 1 441 19 463 19 23 25 24 198 29 175 5 178
5 181 28 l3 22 -186 0 -187 0 -39 -39z"/>
<path d="M616 1171 c-10 -16 5 -41 24 -41 19 0 34 25 24 41 -3 5 -14 9 -24 9
-10 0 -21 -4 -24 -9z"/>
<path d="M617 994 c-4 -4 -7 -40 -7 -79 0 -80 16 -109 45 -85 12 10 15 30 13
89 -3 68 -5 76 -23 79 -12 2 -24 0 -28 -4z"/>
<path d="M498 913 c-34 -56 -32 -137 5 -186 36 -48 81 -71 137 -71 128 0 207
132 147 244 -43 81 -87 57 -47 -26 20 -40 21 -51 11 -84 -32 -108 -190 -108
-222 0 -10 33 -9 44 11 84 36 76 2 108 -42 39z"/>
<path d="M250 557 c-13 -7 -31 -24 -39 -38 -13 -24 -13 -29 2 -52 9 -14 37
-35 63 -46 27 -12 44 -26 42 -33 -6 -18 -47 -22 -75 -7 -18 10 -26 10 -35 1
-18 -18 1 -44 44 -60 46 -18 104 4 114 42 12 50 -3 77 -56 99 -51 21 -67 47
-29 47 11 0 29 -5 40 -11 15 -7 24 -7 35 2 20 16 18 26 -8 43 -35 23 -71 27
-98 13z"/>
<path d="M407 563 c-14 -14 -6 -45 13 -50 18 -5 20 -14 20 -87 0 -93 15 -131
44 -107 12 11 16 33 16 102 0 69 3 89 14 89 7 0 19 7 26 15 22 27 -5 45 -70
45 -31 0 -60 -3 -63 -7z"/>
<path d="M612 558 c-5 -7 -26 -59 -47 -116 -30 -81 -35 -105 -25 -117 14 -17
37 -9 45 16 10 30 78 26 99 -6 17 -26 46 -25 46 2 0 21 -59 184 -76 211 -16
25 -27 28 -42 10z m31 -118 c4 -15 0 -20 -14 -20 -17 0 -18 3 -9 20 6 11 12
20 14 20 2 0 6 -9 9 -20z"/>
<path d="M773 563 c-10 -3 -13 -38 -13 -123 0 -86 3 -120 13 -123 23 -8 37 5
37 37 l0 31 35 -37 c22 -23 41 -35 50 -32 22 9 18 35 -11 65 l-25 27 25 25
c28 29 34 71 12 99 -22 30 -87 46 -123 31z m82 -63 c8 -13 -13 -40 -31 -40 -8
0 -14 10 -14 25 0 18 5 25 19 25 11 0 23 -5 26 -10z"/>
<path d="M943 563 c-23 -9 -15 -42 12 -49 24 -6 25 -8 25 -99 0 -66 4 -95 13
-98 31 -11 37 5 37 98 0 91 1 93 25 99 28 7 34 40 9 50 -18 7 -103 7 -121 -1z"/>
</g>
</svg>
