<svg xmlns="http://www.w3.org/2000/svg" width="500" height="500" viewBox="0 0 500 500" version="1.1"><path d="M 233 163.008 C 210.968 165.149, 192.555 172.617, 178.732 185.018 C 170.978 191.974, 162.761 203.616, 160.551 210.775 L 159.849 213.050 176.080 212.775 L 192.311 212.500 194.099 207.238 C 201.937 184.164, 217.554 169.520, 236.769 167.225 C 250.646 165.568, 262.291 168.480, 272.808 176.237 C 281.622 182.739, 290.691 196.696, 293.934 208.750 L 295.077 213 311.552 213 L 328.027 213 326.461 209.250 C 318.175 189.407, 296.768 172.258, 272.500 166.022 C 265.814 164.304, 244.944 161.696, 241.500 162.148 C 240.950 162.221, 237.125 162.608, 233 163.008 M 17.347 172.750 C 17.697 176.463, 18.283 187.037, 18.648 196.250 C 19.159 209.135, 19.618 213, 20.635 213 C 21.676 213, 22.015 208.906, 22.228 193.750 L 22.500 174.500 28.414 185 C 31.667 190.775, 36.533 199.438, 39.228 204.250 L 44.127 213 62.064 213 C 71.929 213, 80 212.727, 80 212.393 C 80 212.059, 74.329 201.484, 67.398 188.893 L 54.796 166 35.753 166 L 16.711 166 17.347 172.750 M 132.405 168.250 C 132.756 169.488, 133.328 180.063, 133.677 191.750 C 134.246 210.777, 134.489 213, 136.001 213 C 137.516 213, 137.750 210.765, 138.275 191.250 C 138.597 179.287, 139.165 168.713, 139.537 167.750 C 140.116 166.253, 139.604 166, 135.990 166 C 132.088 166, 131.815 166.171, 132.405 168.250 M 348.383 168.750 C 348.722 170.262, 349.293 180.838, 349.653 192.250 L 350.307 213 365.997 213 L 381.688 213 382.342 193.750 C 382.701 183.162, 383.280 172.588, 383.629 170.250 L 384.263 166 366.015 166 L 347.767 166 348.383 168.750 M 457.014 169.757 C 455.647 171.816, 446.084 182.083, 435.764 192.574 C 425.444 203.064, 417 211.952, 417 212.324 C 417 212.696, 418.006 213, 419.236 213 C 420.820 213, 427.017 207.346, 440.486 193.612 C 450.944 182.949, 461.750 172.377, 464.500 170.119 L 469.500 166.013 464.500 166.013 C 459.833 166.014, 459.334 166.263, 457.014 169.757 M 205 239 L 205 245 208.309 245 C 212.723 245, 215.250 242.991, 215.250 239.482 C 215.250 235.964, 211.885 233, 207.889 233 C 205.025 233, 205 233.051, 205 239 M 231 239 C 231 242.333, 231.444 245, 232 245 C 232.550 245, 233 244.325, 233 243.500 C 233 242.675, 233.852 242, 234.893 242 C 235.934 242, 237.045 242.675, 237.362 243.500 C 237.678 244.325, 238.417 245, 239.004 245 C 239.749 245, 239.758 244.416, 239.032 243.061 C 238.342 241.771, 238.330 240.914, 238.997 240.502 C 239.549 240.161, 240 238.799, 240 237.476 C 240 234.777, 237.445 233, 233.566 233 C 231.097 233, 231 233.226, 231 239 M 259.324 234.250 C 258.888 234.938, 257.532 237.637, 256.311 240.250 C 254.652 243.801, 254.432 245, 255.439 245 C 256.180 245, 257.045 244.325, 257.362 243.500 C 258.152 241.440, 262.681 241.608, 263.875 243.742 C 264.411 244.700, 265.155 245.178, 265.528 244.806 C 266.200 244.133, 261.566 233, 260.614 233 C 260.341 233, 259.761 233.563, 259.324 234.250 M 280 233.662 C 280 236.038, 283.576 245, 284.524 245 C 285.162 245, 286.268 243.088, 286.982 240.750 L 288.281 236.500 289.741 240.800 C 291.862 247.050, 292.997 246.108, 296.425 235.250 C 296.849 233.906, 296.717 233, 296.098 233 C 295.527 233, 294.442 235.122, 293.685 237.716 L 292.310 242.431 290.905 238.216 C 290.132 235.897, 289.087 233.887, 288.583 233.750 C 288.079 233.613, 286.980 235.525, 286.141 238 L 284.616 242.500 283.250 237.750 C 282.499 235.137, 281.460 233, 280.942 233 C 280.424 233, 280 233.298, 280 233.662 M 207 239.066 C 207 242.913, 207.149 243.116, 209.750 242.816 C 214.511 242.269, 213.700 235, 208.878 235 C 207.349 235, 207 235.755, 207 239.066 M 233 237.500 C 233 239.665, 233.404 240.082, 235.250 239.820 C 236.727 239.610, 237.500 238.813, 237.500 237.500 C 237.500 236.187, 236.727 235.390, 235.250 235.180 C 233.404 234.918, 233 235.335, 233 237.500 M 259.639 237.498 C 258.646 240.085, 258.871 241, 260.500 241 C 262.151 241, 262.438 239.239, 261.124 237.166 C 260.449 236.102, 260.149 236.169, 259.639 237.498 M 18.670 284.250 C 18.315 294.837, 17.729 306.538, 17.368 310.250 L 16.711 317 20.495 317 L 24.280 317 23.636 311.250 C 23.282 308.087, 22.698 296.387, 22.339 285.250 C 21.869 270.680, 21.353 265, 20.501 265 C 19.651 265, 19.133 270.447, 18.670 284.250 M 77.191 272.798 C 79.561 277.086, 86 288.775, 91.500 298.774 L 101.500 316.952 120.857 316.976 C 138.895 316.998, 140.167 316.881, 139.520 315.250 C 139.139 314.288, 138.573 302.587, 138.263 289.250 C 137.737 266.623, 137.576 265, 135.869 265 C 134.160 265, 134.021 266.439, 133.770 286.750 L 133.500 308.500 121.501 286.750 L 109.503 265 91.193 265 L 72.882 265 77.191 272.798 M 158.492 267.250 C 158.837 268.488, 160.964 273.325, 163.220 278 C 166.607 285.019, 168.911 288.078, 176.451 295.560 C 184.286 303.335, 187.065 305.356, 196.041 309.802 C 212.814 318.110, 231.647 321.830, 250.476 320.554 C 286.066 318.141, 311.859 302.951, 325.056 276.634 C 331.200 264.380, 331.857 265, 312.732 265 L 296.465 265 294.703 271.750 C 293.735 275.462, 291.056 282.316, 288.752 286.980 C 270.044 324.839, 222.591 326.960, 200.794 290.912 C 197.751 285.880, 193.862 275.680, 191.390 266.250 C 191.145 265.313, 186.902 265, 174.464 265 L 157.865 265 158.492 267.250 M 349.697 288.750 C 349.370 301.813, 348.801 313.512, 348.434 314.750 L 347.767 317 365.993 317 L 384.219 317 383.641 313.250 C 383.323 311.188, 382.756 299.488, 382.381 287.250 L 381.700 265 365.996 265 L 350.293 265 349.697 288.750 M 411.135 271.750 C 427.537 292.570, 438.434 307.109, 441.114 311.750 L 444.147 317 467.078 317 L 490.010 317 481.755 308.746 C 477.215 304.206, 467.428 292.506, 460.006 282.746 L 446.513 265 426.165 265 L 405.817 265 411.135 271.750" stroke="none" fill="#f6d759" fill-rule="evenodd"/></svg>