<svg xmlns="http://www.w3.org/2000/svg" width="500" height="500" viewBox="0 0 500 500" version="1.1"><path d="M 230.754 164.085 C 210.082 166.272, 191.416 174.240, 178.114 186.555 C 171.857 192.348, 164.101 202.951, 161.514 209.250 L 159.973 213 176.328 213 L 192.683 213 193.944 208.794 C 196.570 200.026, 202.478 189.727, 208.793 182.907 C 216.791 174.268, 225.957 169.417, 236.816 168.075 C 262.665 164.881, 283.098 178.937, 293.035 206.750 L 295.268 213 311.134 213 C 322.093 213, 327 212.657, 327 211.890 C 327 209.699, 320.826 199.256, 316.019 193.315 C 303.206 177.479, 280.340 166.490, 255 163.989 C 244.232 162.926, 241.612 162.937, 230.754 164.085 M 17.328 173.750 C 17.666 177.463, 18.249 187.813, 18.625 196.750 C 19.154 209.368, 19.608 213, 20.653 213 C 21.733 213, 22.006 209.285, 22.032 194.250 C 22.057 179.291, 22.310 175.826, 23.282 177.112 C 23.952 177.998, 28.772 186.436, 33.992 195.862 L 43.485 213 61.801 213 C 71.875 213, 79.936 212.662, 79.713 212.250 C 79.491 211.838, 73.787 201.488, 67.038 189.250 L 54.768 167 35.740 167 L 16.713 167 17.328 173.750 M 132.415 169.250 C 132.771 170.488, 133.342 180.838, 133.685 192.250 C 134.241 210.819, 134.484 213, 135.997 213 C 137.508 213, 137.754 210.812, 138.325 192.250 C 138.677 180.838, 139.250 170.488, 139.599 169.250 C 140.185 167.171, 139.911 167, 136 167 C 132.085 167, 131.815 167.169, 132.415 169.250 M 348.380 169.750 C 348.716 171.262, 349.288 181.613, 349.650 192.750 L 350.308 213 365.998 213 L 381.687 213 382.345 194.250 C 382.707 183.938, 383.286 173.588, 383.633 171.250 L 384.263 167 366.015 167 L 347.767 167 348.380 169.750 M 457.013 170.757 C 455.645 172.816, 446.307 182.859, 436.263 193.075 C 426.218 203.292, 418 211.954, 418 212.325 C 418 212.696, 419.009 213, 420.243 213 C 421.835 213, 427.861 207.515, 440.993 194.114 C 451.172 183.726, 461.750 173.379, 464.500 171.120 L 469.500 167.013 464.500 167.013 C 459.834 167.014, 459.334 167.263, 457.013 170.757 M 205 239 L 205 245 208.309 245 C 212.723 245, 215.250 242.991, 215.250 239.482 C 215.250 235.964, 211.885 233, 207.889 233 C 205.025 233, 205 233.051, 205 239 M 231 239 C 231 242.333, 231.444 245, 232 245 C 232.550 245, 233 244.325, 233 243.500 C 233 242.675, 233.852 242, 234.893 242 C 235.934 242, 237.045 242.675, 237.362 243.500 C 237.678 244.325, 238.417 245, 239.004 245 C 239.749 245, 239.758 244.416, 239.032 243.061 C 238.342 241.771, 238.330 240.914, 238.997 240.502 C 239.549 240.161, 240 238.799, 240 237.476 C 240 234.777, 237.445 233, 233.566 233 C 231.097 233, 231 233.226, 231 239 M 259.324 234.250 C 258.888 234.938, 257.532 237.637, 256.311 240.250 C 254.652 243.801, 254.432 245, 255.439 245 C 256.180 245, 257.045 244.325, 257.362 243.500 C 258.152 241.440, 262.681 241.608, 263.875 243.742 C 264.411 244.700, 265.155 245.178, 265.528 244.806 C 266.200 244.133, 261.566 233, 260.614 233 C 260.341 233, 259.761 233.563, 259.324 234.250 M 280 233.662 C 280 236.038, 283.576 245, 284.524 245 C 285.162 245, 286.268 243.088, 286.982 240.750 L 288.281 236.500 289.741 240.800 C 291.862 247.050, 292.997 246.108, 296.425 235.250 C 296.849 233.906, 296.717 233, 296.098 233 C 295.527 233, 294.442 235.122, 293.685 237.716 L 292.310 242.431 290.905 238.216 C 290.132 235.897, 289.087 233.887, 288.583 233.750 C 288.079 233.613, 286.980 235.525, 286.141 238 L 284.616 242.500 283.250 237.750 C 282.499 235.137, 281.460 233, 280.942 233 C 280.424 233, 280 233.298, 280 233.662 M 207 239.066 C 207 242.913, 207.149 243.116, 209.750 242.816 C 214.511 242.269, 213.700 235, 208.878 235 C 207.349 235, 207 235.755, 207 239.066 M 233 237.500 C 233 239.665, 233.404 240.082, 235.250 239.820 C 236.727 239.610, 237.500 238.813, 237.500 237.500 C 237.500 236.187, 236.727 235.390, 235.250 235.180 C 233.404 234.918, 233 235.335, 233 237.500 M 259.639 237.498 C 258.646 240.085, 258.871 241, 260.500 241 C 262.151 241, 262.438 239.239, 261.124 237.166 C 260.449 236.102, 260.149 236.169, 259.639 237.498 M 18.674 284.750 C 18.321 295.613, 17.735 307.538, 17.372 311.250 L 16.711 318 20.495 318 L 24.280 318 23.632 312.250 C 23.276 309.087, 22.693 297.163, 22.336 285.750 C 21.867 270.784, 21.356 265, 20.501 265 C 19.649 265, 19.135 270.551, 18.674 284.750 M 73 265.608 C 73 265.967, 79.412 277.888, 87.250 292.099 L 101.500 317.937 120.867 317.969 L 140.233 318 139.576 315.750 C 139.214 314.512, 138.644 302.587, 138.309 289.250 C 137.740 266.638, 137.575 265, 135.869 265 C 134.158 265, 134.021 266.450, 133.769 287.183 L 133.500 309.367 121.374 287.433 L 109.248 265.500 91.124 265.227 C 81.156 265.078, 73 265.249, 73 265.608 M 158.417 267.750 C 158.766 269.262, 160.912 274.325, 163.186 279 C 166.583 285.982, 168.951 289.118, 176.451 296.560 C 184.286 304.335, 187.065 306.356, 196.041 310.802 C 237.864 331.519, 292.768 322.141, 317.450 290.065 C 321.678 284.571, 327.888 272.795, 329.494 267.225 L 330.150 264.951 313.463 265.225 L 296.776 265.500 294.338 273.949 C 285.636 304.102, 263.041 321.018, 236.750 317.064 C 221.985 314.843, 209.076 305.800, 200.983 292.008 C 197.480 286.038, 192.988 274.488, 191.549 267.750 L 190.962 265 174.373 265 L 157.783 265 158.417 267.750 M 349.665 288.750 C 349.320 301.813, 348.752 313.738, 348.402 315.250 L 347.767 318 366.015 318 L 384.263 318 383.608 313.750 C 383.248 311.413, 382.671 299.488, 382.327 287.250 L 381.700 265 365.996 265 L 350.293 265 349.665 288.750 M 406 265.571 C 406 265.884, 411.321 272.972, 417.823 281.321 C 433.818 301.855, 440.456 310.880, 442.410 314.750 L 444.051 318 467.143 318 L 490.234 318 482.326 310.250 C 477.976 305.988, 467.972 294.063, 460.094 283.750 L 445.770 265 425.885 265 C 414.948 265, 406 265.257, 406 265.571" stroke="none" fill="#bff671" fill-rule="evenodd"/></svg>