<?xml version="1.0" standalone="no"?>
<!DOCTYPE svg PUBLIC "-//W3C//DTD SVG 20010904//EN"
 "http://www.w3.org/TR/2001/REC-SVG-20010904/DTD/svg10.dtd">
<svg version="1.0" xmlns="http://www.w3.org/2000/svg"
 width="500.000000pt" height="500.000000pt" viewBox="0 0 500.000000 500.000000"
 preserveAspectRatio="xMidYMid meet">

<g transform="translate(0.000000,500.000000) scale(0.100000,-0.100000)"
fill="#000000" stroke="none">
<path d="M2340 3359 c-308 -23 -573 -174 -692 -394 -57 -105 -70 -95 115 -95
l163 0 22 68 c103 319 424 475 702 340 121 -58 234 -199 285 -355 l17 -53 159
0 c110 0 159 3 159 11 0 21 -61 125 -102 175 -179 218 -485 330 -828 303z"/>
<path d="M174 3278 c3 -29 9 -133 13 -230 5 -139 9 -178 20 -178 10 0 13 37
13 187 0 129 3 184 10 177 6 -6 51 -85 101 -175 50 -90 96 -170 103 -177 9 -9
56 -12 188 -10 l176 3 -126 228 -126 227 -189 0 -190 0 7 -52z"/>
<path d="M1333 3233 c4 -54 7 -158 7 -230 0 -113 2 -133 15 -133 9 0 17 6 19
13 3 6 7 110 10 230 l5 217 -31 0 -31 0 6 -97z"/>
<path d="M3486 3305 c3 -14 9 -116 13 -228 l6 -202 156 -3 156 -2 7 202 c3
112 9 215 12 231 l6 27 -181 0 -181 0 6 -25z"/>
<path d="M4569 3288 c-18 -24 -114 -126 -214 -228 -154 -158 -177 -185 -157
-188 18 -3 62 36 220 196 108 110 215 214 237 231 l40 31 -47 0 c-43 0 -49 -3
-79 -42z"/>
<path d="M186 2133 c-3 -120 -9 -239 -12 -265 l-7 -48 38 0 38 0 -7 48 c-3 26
-9 145 -13 265 -4 158 -9 217 -18 217 -9 0 -14 -59 -19 -217z"/>
<path d="M731 2343 c0 -5 64 -123 142 -263 l142 -255 193 -3 c141 -2 192 1
187 9 -4 6 -10 124 -14 262 -5 228 -8 252 -23 255 -16 3 -18 -14 -20 -220 l-3
-223 -123 223 -123 222 -180 0 c-98 0 -179 -3 -178 -7z"/>
<path d="M1580 2338 c1 -29 61 -152 104 -212 139 -195 358 -309 650 -336 342
-33 673 91 842 313 43 56 101 167 119 225 l7 22 -168 -2 -167 -3 -18 -69 c-27
-107 -92 -227 -161 -301 -139 -149 -357 -195 -544 -115 -146 63 -266 221 -319
423 l-18 67 -163 0 c-125 0 -164 -3 -164 -12z"/>
<path d="M3505 2338 c-2 -7 -6 -119 -8 -248 -3 -129 -8 -243 -12 -252 -7 -17
5 -18 175 -18 l182 0 -6 28 c-3 15 -9 134 -13 265 l-6 237 -154 0 c-114 0
-155 -3 -158 -12z"/>
<path d="M4060 2345 c0 -3 66 -89 147 -192 81 -104 167 -221 192 -260 l46 -73
230 0 230 0 -66 60 c-37 33 -138 152 -225 265 l-158 205 -198 0 c-109 0 -198
-2 -198 -5z"/>
</g>
</svg>
